<?xml version="1.0" standalone="no"?>
<!DOCTYPE svg PUBLIC "-//W3C//DTD SVG 20010904//EN"
 "http://www.w3.org/TR/2001/REC-SVG-20010904/DTD/svg10.dtd">
<svg version="1.0" xmlns="http://www.w3.org/2000/svg"
 width="1417.000000pt" height="1417.000000pt" viewBox="0 0 1417.000000 1417.000000"
 preserveAspectRatio="xMidYMid meet">

<g transform="translate(0.000000,1417.000000) scale(0.100000,-0.100000)"
fill="#000000" stroke="none">
<path d="M1830 8116 c-127 -34 -200 -131 -200 -265 0 -115 50 -200 146 -247
145 -71 329 -8 390 133 23 54 23 166 1 225 -26 67 -99 130 -175 152 -68 19
-100 19 -162 2z"/>
<path d="M4870 6750 l0 -1360 223 0 223 0 15 131 14 131 43 -54 c131 -161 296
-236 542 -245 495 -19 868 248 986 705 47 181 44 441 -7 630 -86 323 -312 547
-636 632 -122 32 -276 44 -379 30 -95 -12 -233 -54 -311 -94 -74 -37 -170
-111 -203 -157 l-30 -42 0 526 0 527 -240 0 -240 0 0 -1360z m1192 149 c186
-38 337 -182 394 -374 27 -90 25 -259 -3 -350 -76 -240 -272 -385 -521 -385
-159 0 -285 51 -393 159 -109 109 -159 234 -159 401 0 168 49 290 161 401 71
71 161 123 252 145 66 16 200 17 269 3z"/>
<path d="M8080 7345 c-634 -115 -1000 -757 -761 -1333 118 -284 365 -491 701
-585 72 -20 100 -22 639 -25 l563 -3 167 -163 c92 -90 192 -179 221 -199 125
-85 254 -67 309 42 32 62 41 146 41 384 l0 229 48 57 c124 145 195 293 227
480 80 455 -207 919 -666 1075 -157 53 -202 56 -833 55 -445 -1 -599 -4 -656
-14z m1323 -271 c90 -20 234 -89 309 -148 168 -133 268 -338 268 -546 0 -171
-64 -332 -189 -473 -45 -50 -73 -92 -81 -120 -7 -24 -14 -133 -17 -255 l-5
-214 -132 129 c-124 123 -183 171 -251 203 -25 12 -134 16 -615 20 l-585 5
-80 28 c-262 88 -449 292 -501 547 -73 360 168 722 546 819 70 19 114 20 668
20 506 1 604 -1 665 -15z"/>
<path d="M3518 7330 c-156 -28 -298 -100 -440 -222 -31 -27 -58 -45 -61 -41
-2 4 -10 61 -17 126 l-12 117 -214 0 -214 0 0 -960 0 -960 234 0 235 0 3 548
c4 604 2 586 71 716 175 331 666 339 827 13 55 -112 59 -166 60 -749 l0 -528
236 0 235 0 -3 608 -4 607 -27 100 c-85 316 -279 526 -557 605 -84 24 -274 35
-352 20z"/>
<path d="M1670 6355 l0 -965 235 0 235 0 0 965 0 965 -235 0 -235 0 0 -965z"/>
<path d="M10350 7300 c0 -5 118 -184 263 -397 145 -214 286 -422 314 -464 l51
-76 -333 -479 c-184 -263 -335 -482 -335 -486 0 -5 128 -8 284 -8 l284 0 207
320 c114 177 209 319 211 317 2 -2 96 -145 208 -318 l203 -314 287 -3 c157 -1
286 0 286 3 0 3 -149 220 -332 482 -182 262 -331 481 -331 487 0 6 138 214
307 463 168 249 309 459 312 468 5 13 -27 15 -279 15 l-285 0 -173 -297 c-95
-164 -180 -310 -189 -325 l-17 -28 -188 325 -189 325 -283 0 c-177 0 -283 -4
-283 -10z"/>
</g>
</svg>
